<svg width="24" height="25" viewBox="0 0 24 25" fill="none" xmlns="http://www.w3.org/2000/svg">
<path d="M17.4535 13.7188C18.3532 13.7188 19.1449 13.2191 19.5527 12.4634L23.8471 4.55375C24.291 3.74938 23.7152 2.75 22.8035 2.75H5.05012L3.92254 0.3125H0V2.75H2.39911L6.71751 12.0003L5.09811 14.9741C4.22243 16.6072 5.374 18.5938 7.19733 18.5938H21.592V16.1562H7.19733L8.51684 13.7188H17.4535ZM6.1897 5.1875H20.7643L17.4535 11.2812H9.03265L6.1897 5.1875ZM7.19733 19.8125C5.87782 19.8125 4.81021 20.9094 4.81021 22.25C4.81021 23.5906 5.87782 24.6875 7.19733 24.6875C8.51684 24.6875 9.59644 23.5906 9.59644 22.25C9.59644 20.9094 8.51684 19.8125 7.19733 19.8125ZM19.1929 19.8125C17.8734 19.8125 16.8058 20.9094 16.8058 22.25C16.8058 23.5906 17.8734 24.6875 19.1929 24.6875C20.5124 24.6875 21.592 23.5906 21.592 22.25C21.592 20.9094 20.5124 19.8125 19.1929 19.8125Z" fill="black"/>
</svg>
